<svg width="40" height="40" fill="none" xmlns="http://www.w3.org/2000/svg"><g clip-path="url(#clip0)"><path d="M37.632 20.901l2.333-1.021-1.983-.861-1.982.867c.58.285 1.126.624 1.632 1.015zm-15.26 6.677c.057-.649.179-1.28.36-1.886l-7.544 3.301-.32.14-.298-.181L1.78 21.17 0 21.763l14.919 9.077 7.453-3.262zm15.556-11.043l-1.984.868-.42.184-.42.184-2.676 1.171a9.43 9.43 0 012.73.58l1.983-.868.42-.184.42-.183 1.985-.869-2.038-.883z" fill="#191919"/><path d="M24.465 22.426l-9.278 4.06-.32.139-.297-.181-10.13-6.162-.375-.228-.375-.23-1.862-1.132-1.828.61 1.862 1.133.376.228.375.229 12.305 7.486 8.122-3.554a9.522 9.522 0 011.425-2.398z" fill="#191919"/><path d="M37.859 13.997l-2.039.892-.42.183-.42.184-1.984.868-.42.184-.42.184-16.97 7.425-.319.14-.297-.182-7.402-4.503-.375-.228-.375-.23-1.863-1.132-.375-.228-.375-.229-1.912-1.162L0 16.794l1.91 1.163.377.23.375.227 1.862 1.133.376.229.375.228 9.643 5.867 10.816-4.733a9.465 9.465 0 014.893-2.14l3.637-1.592.42-.184.42-.184 1.984-.868.42-.184.42-.183 2.038-.892-2.107-.914z" fill="#191919"/><path d="M37.99 11.486l-2.107.922-.42.184-.42.184-2.038.892-.419.183-.42.184-1.985.869-.42.183-.42.184-14.154 6.193-.32.14-.297-.182-4.798-2.919-.375-.228-.376-.228-1.862-1.133-.375-.229-.376-.228-1.911-1.163-.376-.228-.376-.229-1.976-1.202-1.769.59 1.976 1.203.375.228.376.23 1.91 1.161.377.229.375.228 1.862 1.133.376.229.375.228 6.917 4.208 16.397-7.175.419-.184.42-.183 1.985-.869.42-.183.42-.184 2.038-.892.42-.184.42-.183 2.107-.922-1.974-.857z" fill="#191919"/><path d="M25.047 3.418L0 11.773 1.853 12.9l.375.229.375.228L4.58 14.56l.376.228.376.228 1.911 1.163.376.229.375.228 1.862 1.132.375.23.376.227 4.312 2.624L28.5 14.907l.42-.184.42-.184 1.985-.868.42-.184.42-.183 2.038-.892.42-.183.419-.183 2.109-.923.42-.184.42-.184 1.975-.864-14.92-6.473zM7.02 14.136l-.036-.025a9.14 9.14 0 01-.34-.24c-.712-.528-1.125-1.016-1.197-1.463a.82.82 0 01.019-.36c.043-.152.13-.3.268-.442.148-.154.351-.3.615-.44 1.083-.576 1.895-.71 2.594-.63.226.025.441.072.648.137.17.054.338.115.502.187.16.07.32.144.479.223.648.323 1.09.673 1.372 1.02.078.096.148.192.202.287a1.5 1.5 0 01.133.31c.195.618-.09 1.172-.625 1.473-1.179.665-2.657 1.096-4.302.17a6.093 6.093 0 01-.332-.207zm5.165 2.855l-1.317-.811 7.147-2.887 5.03-2.032 2.284-.922 1.352-.547 1.742.935-1.12.468-.429.18-.43.179-8.09 3.38-4.2 1.755-1.466.611-.13-.08-.373-.229zm17.923-4.213l-.423.182-2 .862-.422.182-.423.183-11.267 4.858-1.823-1.116 9.052-3.772 2.455-1.023.43-.18 2.033-.847.43-.179.43-.179.807-.336 1.9.856-.757.326-.422.183z" fill="#191919"/><circle cx="31.645" cy="28.102" fill="#191919" r="8.354"/><path d="M27.492 31h-.636v-4.214l-1.275.468v-.574l1.812-.68h.099v5zm4.973-2.123c0 .741-.127 1.291-.38 1.651-.253.36-.648.54-1.186.54-.53 0-.924-.175-1.179-.526-.255-.353-.387-.88-.396-1.58v-.843c0-.732.126-1.275.38-1.63.252-.356.648-.534 1.189-.534.535 0 .93.172 1.182.516.253.342.383.87.39 1.586v.82zm-.633-.864c0-.536-.075-.925-.225-1.17-.15-.245-.389-.368-.714-.368-.324 0-.56.121-.708.365-.148.244-.224.619-.229 1.125v1.012c0 .537.078.935.233 1.192.157.256.394.383.71.383.313 0 .544-.12.694-.362.153-.242.233-.622.24-1.142v-1.035zm1.388-1.033c0-.298.095-.544.284-.738a.989.989 0 01.735-.29c.303 0 .548.098.735.294.189.193.283.445.283.755v.243a1 1 0 01-.287.738.98.98 0 01-.724.284c-.297 0-.542-.095-.735-.284-.194-.191-.29-.445-.29-.762v-.24zm.472.264c0 .177.05.324.15.44a.51.51 0 00.404.171.493.493 0 00.39-.167c.1-.112.15-.264.15-.458v-.25a.66.66 0 00-.147-.44.495.495 0 00-.4-.175.495.495 0 00-.4.175.681.681 0 00-.147.454v.25zm1.952 2.536a1 1 0 01.283-.735.989.989 0 01.735-.29c.299 0 .544.095.735.287.191.19.287.445.287.762v.242c0 .299-.096.545-.287.739a.98.98 0 01-.728.287 1.01 1.01 0 01-.735-.284c-.194-.191-.29-.445-.29-.762v-.246zm.471.266c0 .18.05.329.15.445.1.114.235.17.404.17a.497.497 0 00.393-.167c.098-.114.147-.268.147-.461v-.253c0-.18-.05-.327-.15-.441a.496.496 0 00-.397-.171.509.509 0 00-.396.17c-.1.113-.15.264-.15.456v.252zm-1.726.578l-.359-.226 2.43-3.89.36.226-2.43 3.89z" fill="#fff"/></g><defs><clipPath id="clip0"><path fill="#fff" d="M0 0h40v40H0z"/></clipPath></defs></svg>