<svg width="40" height="40" fill="none" xmlns="http://www.w3.org/2000/svg"><path d="M34.4 35.949v-11.05h4.8v13.45h-4.8v-2.4zm-18.066 2.325a.797.797 0 01-.46-.053L3.2 32.74c-.757-.265-1.6-2.434-1.6-3.703a2.37 2.37 0 01.93-1.893 2.409 2.409 0 011.463-.507c.18 0 .36.023.536.068l9.716 3.501a2.4 2.4 0 001.978-.16l6.565-3.647a.8.8 0 00-.388-1.5h-6a2 2 0 110-4h5.861L32.8 24.665v10.617l-16.466 2.993zM9.6 19.3h1.6v1.6H9.6v-1.6z" fill="#000"/><path d="M9.6 22.5h1.6v1.6H9.6v-1.6zm-3.2-3.2H8v1.6H6.4v-1.6zm0 3.2H8v1.6H6.4v-1.6zm-3.2-3.2h1.6v1.6H3.2v-1.6zm0 3.2h1.6v1.6H3.2v-1.6zM0 19.3h1.6v1.6H0v-1.6zm37.6 0h1.6v1.6h-1.6v-1.6zm-3.2 0H36v1.6h-1.6v-1.6zm-3.2 0h1.6v1.6h-1.6v-1.6zm-20.8-3.2a2.4 2.4 0 110-4.8 2.4 2.4 0 010 4.8zm16.08-3.2H14.32a3.963 3.963 0 00-.74-1.6h13.64a3.965 3.965 0 00-.74 1.6zm3.92 3.2a2.4 2.4 0 110-4.8 2.4 2.4 0 010 4.8zm8.8-4.8a.8.8 0 010 1.6h-4.88a3.963 3.963 0 00-.74-1.6h5.62zM26.4 1.7h1.487a2.392 2.392 0 012 1.068L31.305 4.9H26.4V1.7zm-3.2 0h1.6v3.2h-1.6V1.7zm-7.545.863a2.394 2.394 0 011.843-.863H21.6v3.2h-7.892l1.947-2.337zM2.833 8.414c.14-.691.715-1.21 1.417-1.28L12 6.5h20.688l4.332 1.238a.8.8 0 01.58.769V9.7H2.576l.257-1.286zM0 12.1a.8.8 0 01.8-.8h6.42a3.964 3.964 0 00-.74 1.6H.8a.8.8 0 01-.8-.8z" fill="#000"/></svg>