<svg width="40" height="40" fill="none" xmlns="http://www.w3.org/2000/svg"><g clip-path="url(#clip0)" fill="#191919"><path d="M18.5 11.667h8.39l-9.667-9.389v7.778c0 .778.5 1.611 1.277 1.611z"/><path d="M15.556 10.056V1.668H2.39A2.222 2.222 0 000 3.945v32.222c0 1.389 1 2.722 2.39 2.722h22.777a2.778 2.778 0 002.611-2.722V13.334H18.5c-1.666 0-2.944-1.611-2.944-3.278zM4.612 18.334h9.444a.833.833 0 010 1.667H4.612a.833.833 0 010-1.667zm17.777 15H4.612a.833.833 0 010-1.667h17.777a.833.833 0 010 1.667zm.834-7.5c0 .46-.373.833-.834.833H4.612a.833.833 0 010-1.667h17.777c.46 0 .834.374.834.834zm14.943 11.555l1.445-2.945h-2.834l1.39 2.945zM36.833 4.445h-.722v.611h-1.778c-.26.05-.495.188-.667.39a.945.945 0 00-.333.666v9.5a.833.833 0 001.667 0V6.945h1.11v8.056H40V4.445h-3.167zm2.445-2.166a1.056 1.056 0 00-.277-.723 1.223 1.223 0 00-.834-.444c-.611 0-.944.722-.944 1.333v.889h2.055V2.279zM40 16.667h-3.889v1.111h3.89v-1.111zm0 2.778h-3.889v13.333h3.89V19.445z"/></g><defs><clipPath id="clip0"><path fill="#fff" d="M0 0h40v40H0z"/></clipPath></defs></svg>