<svg width="40" height="40" fill="none" xmlns="http://www.w3.org/2000/svg"><path d="M14.375 30.625h-2.5a1.887 1.887 0 00-1.637.973l2.887 2.566 2.887-2.567a1.887 1.887 0 00-1.637-.972zm-.493-4.375h.494v-.625a1.25 1.25 0 00-2.458-.306l.924.616c.308.206.67.316 1.04.315z" fill="#191919"/><path d="M23.125 2.5h-20a.625.625 0 00-.625.625v33.75a.625.625 0 00.625.625h20a.624.624 0 00.625-.625V3.125a.625.625 0 00-.625-.625zM5 5h1.25v1.25H5V5zm14.375 22.755a5.629 5.629 0 01-1.888 4.204l-3.946 3.509a.625.625 0 01-.832 0l-3.946-3.51a5.627 5.627 0 01-1.888-4.203V23.75a.625.625 0 01.371-.571l5.625-2.5a.626.626 0 01.508 0l5.625 2.5a.625.625 0 01.371.571v4.005zM21.25 17.5H5v-1.25h16.25v1.25zm0-3.75H5V12.5h16.25v1.25zm0-3.75H5V8.75h16.25V10zm0-3.75H7.5V5h13.75v1.25z" fill="#191919"/><path d="M11.875 28.125a1.25 1.25 0 002.5 0V27.5h-.493a3.12 3.12 0 01-1.734-.525l-.273-.183v1.333z" fill="#191919"/><path d="M8.125 24.156v3.599A4.375 4.375 0 009.3 30.734a3.088 3.088 0 011.739-1.239 2.48 2.48 0 01-.414-1.37v-2.5a2.5 2.5 0 015 0v2.5c0 .488-.144.964-.414 1.37a3.088 3.088 0 011.739 1.239 4.375 4.375 0 001.175-2.98v-3.598l-5-2.222-5 2.222zm25.625 1.469a1.875 1.875 0 103.75 0V12.5h-3.75v13.125zm-1.25-17.5a1.88 1.88 0 00-1.875-1.875H28.75V27.5h4.394a3.078 3.078 0 01-.644-1.875v-17.5zM25 36.25a1.25 1.25 0 002.5 0v-30H25v30z" fill="#191919"/></svg>