<svg width="40" height="40" fill="none" xmlns="http://www.w3.org/2000/svg"><g clip-path="url(#clip0)" fill="#191919"><path d="M20.59 27.034v-.156a32.08 32.08 0 01-2.294-.112 10.455 10.455 0 01-1.662 2.848 27.03 27.03 0 004.008.355l-.052-2.935zm-3.505-5.731A8.692 8.692 0 0011.18 14.8a8.82 8.82 0 00-2.553-.38 8.706 8.706 0 00-5.81 2.242c-3.523 3.203-3.774 8.665-.57 12.189 3.202 3.523 8.665 3.774 12.188.571a8.577 8.577 0 002.823-6.38c0-.58-.06-1.169-.173-1.74zm-8.458.58c1.463 0 2.752.97 3.15 2.38a3.27 3.27 0 01-2.267 4.035v.762c0 .476-.39.865-.866.865a.868.868 0 01-.866-.865v-.753a3.289 3.289 0 01-2.424-3.16c0-.476.39-.866.866-.866s.866.39.866.866a1.537 1.537 0 101.532-1.541 3.26 3.26 0 01-3.151-2.424 3.285 3.285 0 012.32-4v-.372c0-.476.39-.866.865-.866.477 0 .866.39.866.866v.39a3.273 3.273 0 012.38 3.15.867.867 0 01-.865.866.868.868 0 01-.865-.865c0-.849-.693-1.541-1.541-1.541-.849 0-1.533.684-1.541 1.54 0 .849.692 1.533 1.54 1.533zm11.938 3.255l-.052-3.065a30.11 30.11 0 01-1.567-.06c.026.346.043.684.043 1.021 0 .675-.07 1.36-.199 2.026a19.68 19.68 0 001.775.078zm9.479-14.328c-.597.312-1.229.563-1.878.754-1.948.588-4.502.909-7.168.909-2.554 0-4.987-.295-6.865-.84a9.596 9.596 0 01-1.87-.719l.06 2.442a9.987 9.987 0 012.71 1.532c.026.009.043.009.07.017 1.661.425 3.756.65 5.895.65 2.476 0 4.908-.312 6.666-.84 1.878-.571 2.294-1.169 2.294-1.281 0-.121-.009-.234.087-.355V10.81zm-2.389-3.437c-1.758-.536-4.19-.84-6.666-.84-2.494 0-4.83.304-6.58.84-1.826.554-2.225 1.1-2.233 1.273 0 0 .008 0 .008.017.044.19.563.78 2.424 1.316 1.723.502 3.991.78 6.38.78 2.477 0 4.9-.304 6.658-.832 1.879-.562 2.303-1.16 2.303-1.281 0-.113-.416-.701-2.294-1.273zm12.327 23.955V28.73c-.58.295-1.186.546-1.818.736-1.939.589-4.475.91-7.15.91-2.372 0-4.684-.269-6.502-.745a11.28 11.28 0 01-2.156-.788l.044 2.51v.018c0 .13.38.71 2.207 1.273 1.732.528 4.07.822 6.571.822 2.493 0 4.84-.303 6.588-.849 1.827-.57 2.225-1.168 2.225-1.29h-.009zm-9.955-15.687c-.597.303-1.22.554-1.87.745-1.948.588-4.502.909-7.177.909-1.316 0-2.623-.087-3.921-.251.7.97 1.22 2.06 1.55 3.22.744.052 1.549.087 2.38.087h.087c1.42-1.559 5.237-2.338 8.951-2.442v-2.268zm8.078 9.039c-1.931.57-4.442.882-7.073.882-2.554 0-4.987-.294-6.865-.84a10.622 10.622 0 01-1.888-.727l.035 1.991.009.728c.675.84 3.904 1.922 8.7 1.922 2.502 0 4.865-.295 6.64-.832 1.87-.57 2.277-1.16 2.277-1.28 0-.096.052-.2.052-.287H40v-2.294a9.882 9.882 0 01-1.896.736zm-.408-4.2c-1.766-.537-4.19-.822-6.666-.822h-.147c-2.303 0-4.494.26-6.173.736-1.792.502-2.407 1.073-2.485 1.307-.008.017-.008.026-.008.034l.017.035c.052.182.563.77 2.424 1.316 1.723.493 3.991.77 6.38.77 2.468 0 4.805-.285 6.58-.813 1.922-.572 2.355-1.17 2.363-1.299v-.009c-.008-.13-.441-.7-2.285-1.255z"/></g><defs><clipPath id="clip0"><path fill="#fff" d="M0 0h40v40H0z"/></clipPath></defs></svg>